<svg width="1622" height="1161" viewBox="0 0 1622 1161" fill="none" xmlns="http://www.w3.org/2000/svg">
<path d="M0 1160.05V0.0810547H235.2V916.091C235.2 952.143 225.165 987.484 206.217 1018.16C171.895 1073.71 119.9 1116.13 58.5786 1138.59L0 1160.05Z" fill="white"/>
<path fill-rule="evenodd" clip-rule="evenodd" d="M0 0.0825157V197.863L810.728 197.863C775.666 86.8217 674.438 9.92471 558.061 5.92643L385.562 2.76943e-05L53.4543 0V0.0825157H0Z" fill="white"/>
<path fill-rule="evenodd" clip-rule="evenodd" d="M1621.73 262.079V450.791L811 450.791C846.145 344.592 943.796 271.584 1055.6 267.919L1236.17 262L1568.27 262V262.079H1621.73Z" fill="white"/>
<path fill-rule="evenodd" clip-rule="evenodd" d="M1621.73 1153.92V965.208L811 965.208C846.145 1071.41 943.796 1144.41 1055.6 1148.08L1236.17 1154H1568.27V1153.92H1621.73Z" fill="white"/>
<rect x="1203" y="616.944" width="419" height="182.243" fill="white"/>
<path d="M610 1062.5C610 1116.35 564.109 1160 507.5 1160C450.891 1160 405 1116.35 405 1062.5C405 1008.65 450.891 965 507.5 965C564.109 965 610 1008.65 610 1062.5Z" fill="white"/>
<path d="M1090 704C1090 777.454 1027.54 837 950.5 837C873.456 837 811 777.454 811 704C811 630.546 873.456 571 950.5 571C1027.54 571 1090 630.546 1090 704Z" fill="#083CF5"/>
<path fill-rule="evenodd" clip-rule="evenodd" d="M0 675H221.012L222.182 674.609H439.688C553.731 674.609 652.45 595.348 677.092 484L0 484V675Z" fill="#083CF5"/>
</svg>
